<svg width="28" height="25" viewBox="0 0 28 25" fill="none" xmlns="http://www.w3.org/2000/svg">
<path d="M27.5443 2.66929C28.1519 2.05902 28.1519 1.06796 27.5443 0.457697C26.9366 -0.152566 25.9497 -0.152566 25.3421 0.457697L16.0083 9.83132L14.3215 8.13724C14.1173 7.93219 13.8353 7.81502 13.5436 7.81502C12.936 7.81502 12.445 8.30811 12.445 8.91837V10.3391L17.7098 15.6264H19.1244C19.7321 15.6264 20.2231 15.1333 20.2231 14.523C20.2231 14.2301 20.1064 13.9469 19.9023 13.7419L18.2154 12.0478L27.5491 2.67417L27.5443 2.66929ZM16.582 17.257L10.8213 11.4717C8.74552 11.2911 6.67946 12.0429 5.19189 13.5368L4.80299 13.9274C3.71891 15.0161 3.11125 16.4905 3.11125 18.0284C3.11125 18.3603 3.4564 18.5752 3.75294 18.4287L6.23708 17.1838C6.48014 17.0617 6.6989 17.3839 6.49959 17.5694L0.354877 23.1155C0.131256 23.3206 0 23.6135 0 23.9211C0 24.5167 0.481271 25 1.07435 25H9.49902C11.3852 25 13.1888 24.2482 14.5256 22.9105C16.0132 21.4165 16.757 19.3417 16.582 17.257Z" fill="black"/>
</svg>
