<svg width="27" height="23" viewBox="0 0 27 23" fill="none" xmlns="http://www.w3.org/2000/svg">
<path d="M13.5225 1.04402L1.61993 13.0502C0.344465 14.3367 0.344465 16.4209 1.61993 17.7075L5.7014 21.8245C6.31362 22.442 7.14522 22.7868 8.01254 22.7868L13.3848 22.792H13.8644H24.8129C25.7159 22.792 26.4455 22.0561 26.4455 21.1452C26.4455 20.2343 25.7159 19.4984 24.8129 19.4984H18.4815L25.1496 12.7723C26.4251 11.4857 26.4251 9.40149 25.1496 8.11493L18.1448 1.04402C16.8693 -0.242538 14.8031 -0.242538 13.5276 1.04402H13.5225ZM13.8644 19.4984H13.3848H8.00744L3.92596 15.3814L10.288 8.96406L17.2979 16.035L13.8644 19.4984Z" fill="black"/>
</svg>
