<svg width="21" height="29" viewBox="0 0 21 29" fill="none" xmlns="http://www.w3.org/2000/svg">
<path d="M15.0189 21.7624C15.5546 20.0031 16.6652 18.503 17.7645 17.0084C18.0547 16.6168 18.3449 16.2252 18.6239 15.8281C19.7289 14.2563 20.3762 12.3536 20.3762 10.2964C20.3762 4.93018 15.9787 0.584229 10.5544 0.584229C5.13015 0.584229 0.732666 4.93018 0.732666 10.2909C0.732666 12.3481 1.38001 14.2563 2.48496 15.8226C2.76399 16.2197 3.05418 16.6113 3.34437 17.0029C4.44932 18.4975 5.55985 20.0031 6.09 21.7569H15.0189V21.7624ZM10.5544 28.8219C13.0211 28.8219 15.0189 26.8474 15.0189 24.4097V23.5273H6.09V24.4097C6.09 26.8474 8.08784 28.8219 10.5544 28.8219ZM6.09 10.2909C6.09 10.7762 5.6882 11.1733 5.19711 11.1733C4.70602 11.1733 4.30422 10.7762 4.30422 10.2909C4.30422 6.87703 7.10008 4.11393 10.5544 4.11393C11.0455 4.11393 11.4473 4.51102 11.4473 4.99636C11.4473 5.48169 11.0455 5.87878 10.5544 5.87878C8.08784 5.87878 6.09 7.85321 6.09 10.2909Z" fill="black"/>
</svg>
