<svg width="100" height="100" viewBox="0 0 100 100" fill="none" xmlns="http://www.w3.org/2000/svg">
<path d="M99.7228 32.5454C100.386 34.245 99.8264 36.1399 98.3966 37.351L89.4239 45.0479C89.6518 46.6693 89.7762 48.3298 89.7762 50.0098C89.7762 51.6898 89.6518 53.3503 89.4239 54.9717L98.3966 62.6685C99.8264 63.8797 100.386 65.7746 99.7228 67.4741C98.811 69.7988 97.7127 72.0258 96.4487 74.1746L95.4748 75.757C94.1071 77.9058 92.5737 79.9375 90.8952 81.8519C89.6726 83.2585 87.6418 83.7273 85.8182 83.1803L74.276 79.7226C71.4992 81.7347 68.4324 83.4147 65.1583 84.6845L62.568 95.839C62.1535 97.6167 60.703 99.0232 58.7966 99.3163C55.9369 99.7656 52.9944 100 49.9896 100C46.9849 100 44.0424 99.7656 41.1827 99.3163C39.2763 99.0232 37.8257 97.6167 37.4113 95.839L34.821 84.6845C31.5469 83.4147 28.4801 81.7347 25.7033 79.7226L14.1818 83.1998C12.3582 83.7468 10.3275 83.2585 9.10485 81.8715C7.42635 79.957 5.89291 77.9254 4.52525 75.7765L3.55131 74.1942C2.28726 72.0453 1.18899 69.8183 0.277212 67.4937C-0.385897 65.7941 0.173601 63.8992 1.60343 62.688L10.5761 54.9912C10.3482 53.3503 10.2238 51.6898 10.2238 50.0098C10.2238 48.3298 10.3482 46.6693 10.5761 45.0479L1.60343 37.351C0.173601 36.1399 -0.385897 34.245 0.277212 32.5454C1.18899 30.2207 2.28726 27.9938 3.55131 25.8449L4.52525 24.2626C5.89291 22.1137 7.42635 20.082 9.10485 18.1676C10.3275 16.7611 12.3582 16.2922 14.1818 16.8392L25.724 20.2969C28.5008 18.2848 31.5677 16.6048 34.8418 15.335L37.432 4.1805C37.8465 2.40281 39.297 0.996288 41.2035 0.703262C44.0631 0.234421 47.0057 0 50.0104 0C53.0151 0 55.9576 0.234421 58.8173 0.683727C60.7237 0.976753 62.1743 2.38328 62.5887 4.16097L65.179 15.3155C68.4531 16.5853 71.52 18.2653 74.2967 20.2774L85.839 16.8197C87.6625 16.2727 89.6933 16.7611 90.9159 18.1481C92.5944 20.0625 94.1278 22.0942 95.4955 24.243L96.4694 25.8254C97.7335 27.9742 98.8317 30.2012 99.7435 32.5259L99.7228 32.5454ZM50.0104 65.6378C54.407 65.6378 58.6237 63.9913 61.7326 61.0605C64.8415 58.1296 66.5881 54.1546 66.5881 50.0098C66.5881 45.865 64.8415 41.8899 61.7326 38.9591C58.6237 36.0282 54.407 34.3817 50.0104 34.3817C45.6137 34.3817 41.3971 36.0282 38.2881 38.9591C35.1792 41.8899 33.4326 45.865 33.4326 50.0098C33.4326 54.1546 35.1792 58.1296 38.2881 61.0605C41.3971 63.9913 45.6137 65.6378 50.0104 65.6378Z" fill="#DFF6FF"/>
</svg>
