<svg width="65" height="65" viewBox="0 0 65 65" fill="none" xmlns="http://www.w3.org/2000/svg">
<path fill-rule="evenodd" clip-rule="evenodd" d="M10 1.27723e-08C5.5001 1.27723e-08 0.000132045 3.5 3.62469e-05 10L4.07173e-05 31.588L3.62469e-05 55C-7.94935e-05 60.9998 4.50012 65 10 65H55C59.5001 65 65 61.4998 65 55V10C65 3.49976 59.5001 -0.000244135 55 1.27723e-08C51.4928 0.000190429 28.8519 8.39722e-05 16.9019 2.77901e-05L16.8997 2.77797e-05L16.8975 2.77693e-05L16.8953 2.77589e-05L16.8931 2.77485e-05L16.8908 2.77381e-05L16.8886 2.77277e-05L16.8864 2.77173e-05L16.8842 2.77069e-05L16.882 2.76965e-05L10 1.27723e-08ZM4 10C4 6.99976 6.5 3.99976 10 3.99976H21V21.9998H4V10ZM10 11.9998V9.99976L12 8.49976H14V18.9998H12V10.4998L10 11.9998ZM23 3.99976V21.9998H42V3.99976H23ZM61 21.9998H44V3.99976H55C58 3.99976 61 6.49976 61 10V21.9998ZM23 41.9998V23.9998H42V41.9998H23ZM29 30.4998C29.4375 29.133 30.6287 27.9515 32 27.9998C32.8123 27.8055 33.249 27.826 34 27.9998C35.764 28.8021 36.4935 29.5011 37 31.4998C37.1885 32.907 37.2634 33.6895 37 34.9998C36.6113 36.9004 36.0387 37.8117 34 38.9998C33.2331 39.2008 32.7976 39.2203 32 38.9998C29.9938 38.6302 29.4713 37.8421 29 35.9998H31C32.5 38.4998 34.6476 36.9355 35 33.4998C33.2591 35.7264 32.0666 35.8018 29.5 33.9998C28.743 32.6328 28.5625 31.8665 29 30.4998ZM44 23.9998V41.9998H61V23.9998H44ZM23 43.9998V60.9998H42V43.9998H23ZM4 55V43.9998H21V60.9998H10C7 60.9998 4 58.4998 4 55ZM4 41.9998V23.9998H21V41.9998H4ZM9 35.9998H11C11.5 37.4998 13.5 37.4998 14 36.9998C14.7345 36.0386 14.9077 35.5791 14.5 34.9998C14.2168 34.0702 14.0117 33.8265 13.5 33.4998C12.453 32.9714 11.9123 33.1177 11 33.9998H9L10.5 27.9998H16V29.9998H11.5L11 31.9998C12.4981 31.2365 13.378 31.3027 15 31.9998C16.501 33.0996 16.6856 33.7816 17 34.9998C16.6087 37.4877 15.7761 38.1551 14 38.9998C13.219 39.2133 12.7809 39.2801 12 38.9998C10.14 38.4802 9.64754 37.6676 9 35.9998ZM61 55V43.9998H44V60.9998H55C58.5 60.9998 61 57.9998 61 55ZM49 48.9998V46.9998H56.5V48.9998L52 57.9998H49.5L54 48.9998H49ZM31 31.4998C31 28.9998 34.5 28.9998 34.5 31.4998C34.5 33.9998 31 33.9998 31 31.4998Z" fill="#1363DF"/>
</svg>
