<svg width="21" height="21" viewBox="0 0 21 21" fill="none" xmlns="http://www.w3.org/2000/svg">
<path d="M5.05295 6.08262H7.31538C8.11151 6.08262 8.7547 6.74875 8.7547 7.57326C8.7547 8.39777 8.11151 9.0639 7.31538 9.0639H1.5581C0.761971 9.0639 0.118774 8.39777 0.118774 7.57326V1.6107C0.118774 0.786191 0.761971 0.120061 1.5581 0.120061C2.35422 0.120061 2.99742 0.786191 2.99742 1.6107V3.99572L3.78904 3.17587C7.72469 -0.900096 14.1027 -0.900096 18.0383 3.17587C21.974 7.25184 21.974 13.8572 18.0383 17.9332C14.1027 22.0092 7.72469 22.0092 3.78904 17.9332C3.22681 17.3509 3.22681 16.4053 3.78904 15.823C4.35128 15.2407 5.26435 15.2407 5.82658 15.823C8.63776 18.7344 13.1941 18.7344 16.0053 15.823C18.8165 12.9116 18.8165 8.19281 16.0053 5.2814C13.1941 2.37 8.63776 2.37 5.82658 5.2814L5.05295 6.08262Z" fill="black"/>
</svg>
